<?xml version="1.0" encoding="UTF-8"?>
<svg width="12px" height="12px" viewBox="0 0 12 12" version="1.1" xmlns="http://www.w3.org/2000/svg" xmlns:xlink="http://www.w3.org/1999/xlink">
    <!-- Generator: sketchtool 50.2 (55047) - http://www.bohemiancoding.com/sketch -->
    <title>2FF5DFA2-217E-4E5C-85F6-93538970D8C7</title>
    <desc>Created with sketchtool.</desc>
    <defs></defs>
    <g id="Home-Page" stroke="none" stroke-width="1" fill="none" fill-rule="evenodd">
        <g id="SokoGlam_HP_Rev3" transform="translate(-922.000000, -4699.000000)" fill="#539AC0" fill-rule="nonzero">
            <g id="Group-5-Copy-14" transform="translate(807.000000, 4693.000000)">
                <g id="Group" transform="translate(115.000000, 6.000000)">
                    <path d="M8.11095,1.41075 C7.7214,1.41075 7.4055,1.09485 7.4055,0.7053 C7.4055,0.3159 7.7214,8.8817842e-16 8.11095,8.8817842e-16 L11.28495,8.8817842e-16 C11.6742,8.8817842e-16 11.99025,0.3162 11.99025,0.7053 L11.99025,3.87945 C11.99025,4.26885 11.67435,4.58475 11.28495,4.58475 C10.89555,4.58475 10.57965,4.26885 10.57965,3.87945 L10.57965,2.40795 L6.4938,6.4938 C6.2184,6.76905 5.77185,6.76905 5.49645,6.4938 C5.2212,6.2184 5.2212,5.77185 5.49645,5.49645 L9.5823,1.41075 L8.11095,1.41075 Z M10.57965,6.7005 C10.57965,6.31095 10.89555,5.9952 11.28495,5.9952 C11.67435,5.9952 11.99025,6.31095 11.99025,6.7005 L11.99025,11.28495 C11.99025,11.67435 11.67435,11.99025 11.28495,11.99025 L0.7053,11.99025 C0.3159,11.99025 0,11.67435 0,11.28495 L0,0.7053 C0,0.3159 0.3159,0 0.7053,0 L5.28975,0 C5.6793,0 5.9952,0.3159 5.9952,0.7053 C5.9952,1.09485 5.6793,1.41075 5.28975,1.41075 L1.41075,1.41075 L1.41075,10.57965 L10.57965,10.57965 L10.57965,6.7005 Z" id="Shape"></path>
                </g>
            </g>
        </g>
    </g>
</svg>