<svg width="20" height="20" xmlns="http://www.w3.org/2000/svg"><path d="M16.75 10.679l-.195.195-6.319-6.41.15-.15a4.506 4.506 0 0 1 6.364 0 4.506 4.506 0 0 1 0 6.365zm-7.07 7.07c-.048.048-.097.09-.148.132a1.798 1.798 0 0 1-.146-.131l-7.072-7.071a4.508 4.508 0 0 1 0-6.364 4.488 4.488 0 0 1 3.183-1.316A4.49 4.49 0 0 1 8.68 4.315l7.17 7.265-6.17 6.17zm7.777-14.141a5.508 5.508 0 0 0-7.778 0l-.147.146-.146-.146a5.509 5.509 0 0 0-7.779 0 5.509 5.509 0 0 0 0 7.778l7.072 7.07c.14.14.293.258.446.374l.407.313.407-.313c.154-.116.307-.233.447-.373l6.52-6.52.351-.351.2-.2a5.507 5.507 0 0 0 0-7.778z" fill="#000" fill-rule="nonzero"/></svg>