<?xml version="1.0" encoding="UTF-8"?>
<svg width="30px" height="21px" viewBox="0 0 30 21" version="1.1" xmlns="http://www.w3.org/2000/svg" xmlns:xlink="http://www.w3.org/1999/xlink">
    <!-- Generator: sketchtool 50.2 (55047) - http://www.bohemiancoding.com/sketch -->
    <title>A3D26500-6A60-4E0C-A1D4-BB80B4C5DA8E</title>
    <desc>Created with sketchtool.</desc>
    <defs></defs>
    <g id="Home-Page" stroke="none" stroke-width="1" fill="none" fill-rule="evenodd">
        <g id="Icons" transform="translate(-93.000000, -450.000000)" fill="#D0021B" fill-rule="nonzero">
            <g id="noun_35023-copy-2" transform="translate(93.000000, 450.000000)">
                <path d="M28.8305128,3.64466962 C28.4798795,2.14973086 27.2334044,1.04799043 25.7335834,0.883449035 C22.1810963,0.493849022 18.5857761,0.250798803 15.0057297,0.252761524 C11.4256832,0.250798803 7.83003099,0.493849022 4.27721179,0.883449035 C2.77739082,1.04799043 1.53157983,2.14973086 1.1812785,3.64466962 C0.682887692,5.77291285 0.676578947,8.09579253 0.676578947,10.2874971 C0.676578947,12.4788745 0.676578947,14.8017541 1.17530179,16.9303245 C1.52593516,18.4239548 2.77174616,19.5270037 4.27156712,19.6905637 C7.82405428,20.0801637 11.4193745,20.3232139 14.9997529,20.3215783 C18.5797994,20.3232139 22.1754516,20.0804908 25.7276067,19.6905637 C27.2277597,19.5266766 28.4739028,18.4239548 28.8245361,16.9303245 C29.3229269,14.8017541 29.3265794,12.4788745 29.3265794,10.2874971 C29.3265794,8.09611965 29.3292357,5.77291285 28.8305128,3.64466962 M19.8863735,10.9374846 L13.1326967,14.5348242 C12.4613134,14.8926935 11.9117886,14.569826 11.9117886,13.8181041 L11.9117886,6.75656293 C11.9117886,6.00451386 12.4609814,5.68164635 13.1326967,6.03951571 L19.8863735,9.63718234 C20.5580888,9.99439746 20.5580888,10.5799424 19.8863735,10.9374846" id="Shape"></path>
            </g>
        </g>
    </g>
</svg>